<?xml version="1.0" standalone="no"?>
<!DOCTYPE svg PUBLIC "-//W3C//DTD SVG 20010904//EN"
 "http://www.w3.org/TR/2001/REC-SVG-20010904/DTD/svg10.dtd">
<svg version="1.0" xmlns="http://www.w3.org/2000/svg"
 width="804.000000pt" height="1280.000000pt" viewBox="0 0 804.000000 1280.000000"
 preserveAspectRatio="xMidYMid meet">
<metadata>
Created by potrace 1.15, written by Peter Selinger 2001-2017
</metadata>
<g transform="translate(0.000000,1280.000000) scale(0.100000,-0.100000)"
fill="#000000" stroke="none">
<path d="M1518 12765 c-27 -9 -64 -31 -83 -50 -91 -91 -203 -417 -259 -757
-37 -222 -50 -414 -43 -658 7 -230 23 -371 63 -570 14 -68 23 -134 20 -146 -7
-25 -419 -444 -633 -643 -79 -73 -169 -165 -202 -204 -279 -343 -419 -803
-356 -1173 103 -600 763 -1243 1676 -1633 77 -32 336 -105 486 -136 55 -11 56
-19 23 -181 -68 -343 -154 -562 -279 -712 -74 -89 -98 -130 -130 -227 -49
-147 -64 -265 -65 -485 0 -107 5 -238 12 -290 52 -389 173 -719 379 -1032 l71
-106 7 -111 c13 -197 -33 -712 -96 -1071 -34 -199 -50 -284 -55 -303 -3 -10
-51 -40 -115 -72 -316 -159 -591 -362 -737 -544 -86 -107 -105 -137 -97 -151
3 -5 32 -10 64 -10 31 0 65 -6 74 -12 15 -12 9 -21 -54 -93 -117 -132 -302
-366 -365 -461 -79 -121 -157 -273 -188 -366 -30 -87 -37 -234 -13 -244 7 -2
53 11 103 30 217 83 604 146 907 146 111 0 241 -21 382 -60 101 -29 387 -96
480 -113 266 -49 478 -63 720 -47 105 7 228 16 275 20 47 5 274 12 505 16 490
8 712 -3 845 -39 595 -165 692 -189 955 -235 205 -37 454 -39 670 -7 148 22
395 86 502 130 277 114 528 321 703 580 181 269 297 616 346 1034 13 116 15
204 11 450 -5 322 -19 446 -76 662 -92 346 -283 682 -543 954 -190 199 -373
331 -662 477 -307 155 -482 275 -675 462 -310 303 -507 632 -723 1210 -32 87
-58 166 -56 175 3 13 23 17 108 22 436 26 797 179 1050 445 237 249 350 559
350 957 -1 339 -60 675 -187 1047 -43 127 -100 354 -105 418 -1 20 11 45 43
88 322 420 670 1145 764 1589 48 230 23 358 -97 478 -111 112 -200 133 -523
123 -121 -4 -236 -8 -255 -11 -115 -12 -156 -19 -259 -41 -149 -33 -415 -125
-637 -220 -99 -42 -189 -78 -201 -81 -16 -4 -41 10 -95 54 -458 374 -1100 570
-1798 549 -118 -3 -239 -10 -268 -14 -43 -7 -57 -6 -71 7 -10 9 -56 78 -102
154 -209 343 -451 618 -679 769 -124 82 -372 206 -485 244 -101 33 -255 42
-327 19z"/>
</g>
</svg>
